<?xml version="1.0" standalone="no"?>
<!DOCTYPE svg PUBLIC "-//W3C//DTD SVG 20010904//EN"
 "http://www.w3.org/TR/2001/REC-SVG-20010904/DTD/svg10.dtd">
<svg version="1.0" xmlns="http://www.w3.org/2000/svg"
 width="479.000000pt" height="236.000000pt" viewBox="0 0 479.000000 236.000000"
 preserveAspectRatio="xMidYMid meet">

<g transform="translate(0.000000,236.000000) scale(0.100000,-0.100000)"
fill="#000000" stroke="none">
<path d="M381 2193 c0 -35 3 -63 7 -63 4 0 6 16 4 35 -3 27 -1 35 12 35 12 0
16 -9 16 -35 0 -19 5 -35 11 -35 6 0 9 16 7 38 -2 29 -8 38 -25 40 -13 2 -23
12 -26 25 -2 12 -5 -6 -6 -40z"/>
<path d="M805 2190 c0 -33 4 -60 10 -60 6 0 9 24 7 60 -5 78 -17 78 -17 0z"/>
<path d="M1542 2238 c-14 -14 -16 -108 -2 -108 9 0 15 54 10 89 -1 8 4 18 12
22 7 5 8 9 3 9 -6 0 -16 -5 -23 -12z"/>
<path d="M1665 2190 c0 -33 3 -60 8 -60 4 0 7 16 7 35 0 26 4 35 16 35 13 0
15 -8 12 -35 -2 -21 0 -35 7 -35 6 0 9 16 7 40 -3 31 -8 40 -23 40 -12 0 -19
7 -19 20 0 11 -3 20 -7 20 -5 0 -8 -27 -8 -60z"/>
<path d="M1864 2235 c-11 -27 -9 -105 2 -105 6 0 9 13 6 31 -3 20 0 34 9 40
10 6 11 9 2 9 -7 0 -13 6 -13 14 0 8 6 17 13 19 9 4 9 6 -1 6 -7 1 -15 -6 -18
-14z"/>
<path d="M1990 2190 c0 -33 4 -60 10 -60 6 0 10 27 10 60 0 33 -4 60 -10 60
-6 0 -10 -27 -10 -60z"/>
<path d="M2035 2190 c0 -33 3 -60 8 -60 4 0 7 27 7 60 0 33 -3 60 -7 60 -5 0
-8 -27 -8 -60z"/>
<path d="M2710 2230 c0 -11 -7 -20 -15 -20 -8 0 -19 -9 -25 -20 -15 -28 4 -60
35 -60 24 0 25 3 25 60 0 33 -4 60 -10 60 -5 0 -10 -9 -10 -20z m0 -60 c0 -20
-5 -30 -15 -30 -10 0 -15 10 -15 30 0 20 5 30 15 30 10 0 15 -10 15 -30z"/>
<path d="M3305 2190 c0 -33 4 -60 10 -60 6 0 9 24 7 60 -5 78 -17 78 -17 0z"/>
<path d="M3460 2190 c0 -33 4 -60 10 -60 6 0 10 27 10 60 0 33 -4 60 -10 60
-6 0 -10 -27 -10 -60z"/>
<path d="M4084 2235 c-11 -27 -9 -105 2 -105 6 0 9 13 6 31 -3 20 0 34 9 40
10 6 11 9 2 9 -7 0 -13 6 -13 14 0 8 6 17 13 19 9 4 9 6 -1 6 -7 1 -15 -6 -18
-14z"/>
<path d="M90 2230 c-10 -6 -11 -10 -2 -10 7 0 12 -15 12 -39 0 -22 -5 -42 -12
-44 -7 -3 -4 -6 7 -6 18 -1 20 4 17 42 -5 66 -5 68 -22 57z"/>
<path d="M243 2183 l21 -56 16 37 15 38 14 -39 c12 -33 15 -35 22 -18 11 28
11 37 0 31 -5 -3 -14 9 -21 27 l-11 32 -16 -35 -16 -35 -10 38 c-6 20 -16 37
-23 37 -8 0 -5 -17 9 -57z"/>
<path d="M343 2213 c-1 -24 -1 -25 7 -8 11 26 12 35 2 35 -4 0 -8 -12 -9 -27z"/>
<path d="M2275 2230 c3 -5 8 -10 11 -10 2 0 4 5 4 10 0 6 -5 10 -11 10 -5 0
-7 -4 -4 -10z"/>
<path d="M2838 2233 c24 -5 29 -22 10 -42 -11 -11 -10 -13 2 -9 8 3 15 16 15
29 0 19 -6 24 -25 26 -22 1 -22 1 -2 -4z"/>
<path d="M3671 2222 c-16 -31 -13 -77 7 -99 9 -10 14 -14 11 -8 -14 23 -17 58
-8 87 10 38 5 48 -10 20z"/>
<path d="M4170 2185 c0 -30 3 -55 8 -55 4 0 6 21 4 48 -4 52 0 50 42 -13 21
-32 26 -36 26 -18 0 12 -4 23 -8 25 -4 2 -18 18 -31 36 -12 17 -27 32 -32 32
-5 0 -9 -25 -9 -55z"/>
<path d="M4355 2185 c0 -30 3 -55 8 -55 4 0 7 21 7 47 l0 48 26 -40 c41 -61
42 -61 46 -1 2 35 -1 56 -7 56 -7 0 -9 -15 -7 -35 2 -19 2 -35 -1 -35 -3 0
-15 16 -27 35 -31 51 -45 45 -45 -20z"/>
<path d="M4482 2208 c8 -28 8 -48 0 -75 -10 -34 -10 -36 3 -19 8 11 15 36 15
56 0 20 -7 45 -15 56 -13 17 -13 15 -3 -18z"/>
<path d="M532 2178 c2 -26 9 -43 18 -46 12 -4 13 -2 3 9 -16 17 -17 56 -1 61
7 3 5 7 -6 11 -15 6 -17 1 -14 -35z"/>
<path d="M762 2178 c2 -26 9 -43 18 -46 12 -4 13 -2 3 9 -16 17 -17 56 -1 61
7 3 5 7 -6 11 -15 6 -17 1 -14 -35z"/>
<path d="M1159 2215 c-3 -2 -3 -22 -1 -44 3 -30 9 -41 21 -41 13 0 13 2 2 9
-9 6 -12 20 -9 40 4 29 -3 47 -13 36z"/>
<path d="M1362 2178 c2 -26 9 -43 18 -46 12 -4 13 -2 3 9 -16 17 -17 56 -1 61
7 3 5 7 -6 11 -15 6 -17 1 -14 -35z"/>
<path d="M1618 2215 c-2 -2 -2 -22 0 -44 3 -30 8 -41 21 -40 10 0 11 2 4 6
-16 6 -17 60 -1 65 8 3 6 6 -4 10 -9 4 -18 5 -20 3z"/>
<path d="M3719 2215 c-3 -2 -3 -22 -1 -44 3 -30 9 -41 21 -41 13 0 13 2 2 9
-9 6 -12 20 -9 40 4 29 -3 47 -13 36z"/>
<path d="M473 2204 c22 -7 22 -12 -5 -33 -25 -21 -17 -41 18 -41 23 0 25 3 22
38 -3 31 -7 37 -28 39 -14 1 -18 0 -7 -3z m17 -49 c0 -8 -4 -15 -10 -15 -5 0
-10 7 -10 15 0 8 5 15 10 15 6 0 10 -7 10 -15z"/>
<path d="M615 2170 c0 -22 5 -40 10 -40 6 0 9 17 7 40 -2 22 -7 40 -11 40 -3
0 -6 -18 -6 -40z"/>
<path d="M660 2191 c0 -10 7 -21 15 -25 20 -7 19 -24 -2 -29 -14 -4 -12 -5 5
-6 16 -1 22 5 22 19 0 11 -7 23 -15 26 -20 8 -19 21 3 27 13 4 11 5 -5 6 -16
1 -23 -5 -23 -18z"/>
<path d="M838 2203 c6 -2 12 -20 12 -39 0 -19 3 -34 8 -34 4 0 6 18 4 40 -3
29 -8 40 -21 39 -10 0 -11 -2 -3 -6z"/>
<path d="M892 2198 c-25 -25 -1 -77 30 -65 8 4 7 6 -4 6 -26 1 -22 31 3 31 14
0 19 5 17 17 -4 22 -29 28 -46 11z m33 -8 c3 -5 -1 -10 -9 -10 -9 0 -16 5 -16
10 0 6 4 10 9 10 6 0 13 -4 16 -10z"/>
<path d="M1000 2195 c-26 -31 13 -82 44 -56 19 16 21 42 4 59 -16 16 -33 15
-48 -3z m44 -10 c8 -21 -3 -45 -20 -45 -9 0 -14 11 -14 30 0 32 23 42 34 15z"/>
<path d="M1078 2170 c4 -36 7 -40 31 -40 25 0 26 2 21 43 l-5 42 -3 -37 c-4
-51 -32 -53 -32 -3 0 19 -3 35 -8 35 -4 0 -6 -18 -4 -40z"/>
<path d="M1200 2151 c0 -34 4 -61 9 -61 5 0 7 9 4 19 -4 15 1 20 19 23 19 2
23 9 23 38 0 31 -3 35 -27 38 -28 3 -28 3 -28 -57z m45 18 c0 -15 -7 -25 -17
-27 -13 -3 -18 3 -18 21 0 13 3 27 7 31 13 12 28 -1 28 -25z"/>
<path d="M1283 2175 c2 -36 5 -40 30 -43 26 -3 27 -1 27 37 0 23 -3 41 -8 41
-4 0 -7 -15 -7 -32 0 -46 -28 -44 -37 2 l-6 35 1 -40z"/>
<path d="M1450 2195 c-26 -31 13 -82 44 -56 19 16 21 42 4 59 -16 16 -33 15
-48 -3z m44 -10 c8 -21 -3 -45 -20 -45 -9 0 -14 11 -14 30 0 32 23 42 34 15z"/>
<path d="M1744 2196 c-12 -31 0 -61 26 -63 25 -3 25 -3 3 7 -31 13 -29 30 3
30 20 0 25 4 20 16 -3 9 -6 18 -6 20 0 11 -41 2 -46 -10z m36 -6 c0 -5 -7 -10
-16 -10 -8 0 -12 5 -9 10 3 6 10 10 16 10 5 0 9 -4 9 -10z"/>
<path d="M1910 2191 c-15 -29 4 -63 33 -59 18 2 22 10 22 38 0 28 -4 36 -22
38 -14 2 -26 -4 -33 -17z m45 -21 c0 -16 -6 -26 -17 -28 -14 -3 -18 3 -18 28
0 25 4 31 18 28 11 -2 17 -12 17 -28z"/>
<path d="M2080 2195 c-26 -31 13 -82 44 -56 19 16 21 42 4 59 -16 16 -33 15
-48 -3z m44 -10 c8 -21 -3 -45 -20 -45 -9 0 -14 11 -14 30 0 32 23 42 34 15z"/>
<path d="M2161 2183 c5 -16 12 -34 15 -42 2 -8 7 -11 10 -8 8 7 -18 77 -28 77
-4 0 -3 -12 3 -27z"/>
<path d="M2240 2199 c0 -5 5 -7 10 -4 6 3 10 8 10 11 0 2 -4 4 -10 4 -5 0 -10
-5 -10 -11z"/>
<path d="M2275 2170 c0 -22 3 -40 8 -40 4 0 7 18 7 40 0 22 -3 40 -7 40 -5 0
-8 -18 -8 -40z"/>
<path d="M2315 2170 c0 -22 5 -40 10 -40 7 0 9 15 7 35 -3 27 -1 35 12 35 12
0 16 -9 16 -35 0 -19 3 -35 8 -35 4 0 6 18 4 40 -4 36 -7 40 -31 40 -24 0 -26
-3 -26 -40z"/>
<path d="M2407 2203 c-3 -5 -7 -30 -8 -58 -4 -50 -4 -50 26 -50 23 0 31 5 33
23 3 18 -1 22 -25 23 -27 0 -27 1 -5 9 29 12 32 60 3 60 -11 0 -22 -3 -24 -7z
m33 -23 c0 -11 -7 -20 -15 -20 -8 0 -15 9 -15 20 0 11 7 20 15 20 8 0 15 -9
15 -20z m10 -65 c0 -9 -9 -15 -25 -15 -24 0 -32 10 -18 23 12 13 43 7 43 -8z"/>
<path d="M2522 2198 c-27 -27 -2 -74 35 -65 14 4 13 5 -4 6 -19 1 -23 7 -23
32 0 26 3 31 20 26 11 -3 20 -1 20 4 0 13 -34 11 -48 -3z"/>
<path d="M2590 2191 c-15 -29 4 -63 33 -59 18 2 22 10 22 38 0 28 -4 36 -22
38 -14 2 -26 -4 -33 -17z m45 -21 c0 -16 -6 -26 -17 -28 -14 -3 -18 3 -18 28
0 25 4 31 18 28 11 -2 17 -12 17 -28z"/>
<path d="M2750 2191 c-15 -28 3 -61 33 -60 l22 0 -22 9 c-29 12 -30 30 -2 30
14 0 19 5 17 17 -5 26 -35 28 -48 4z m40 -1 c0 -5 -7 -10 -15 -10 -8 0 -15 5
-15 10 0 6 7 10 15 10 8 0 15 -4 15 -10z"/>
<path d="M2930 2190 c-15 -27 4 -60 33 -59 l22 0 -22 9 c-15 6 -23 18 -23 34
0 18 6 26 23 29 l22 4 -22 2 c-13 0 -27 -7 -33 -19z"/>
<path d="M3004 2196 c-3 -8 -4 -25 -2 -38 2 -17 9 -23 28 -23 22 0 25 4 25 35
0 29 -4 36 -23 38 -13 2 -24 -3 -28 -12z m46 -26 c0 -23 -4 -30 -20 -30 -16 0
-20 7 -20 30 0 23 4 30 20 30 16 0 20 -7 20 -30z"/>
<path d="M3080 2171 c0 -23 5 -41 10 -41 6 0 10 16 10 36 0 24 4 34 13 31 6
-2 12 -18 12 -35 0 -18 3 -32 8 -32 5 0 7 17 5 38 -3 32 -7 37 -30 40 -27 3
-28 1 -28 -37z"/>
<path d="M3163 2194 c-4 -10 0 -20 10 -26 22 -12 22 -25 0 -31 -14 -4 -13 -5
4 -6 32 -2 40 19 15 40 -27 21 -27 26 -4 32 16 4 16 5 -1 6 -10 0 -20 -6 -24
-15z"/>
<path d="M3224 2196 c-11 -29 1 -61 23 -64 29 -4 48 30 33 58 -12 23 -48 27
-56 6z m46 -26 c0 -20 -5 -30 -15 -30 -18 0 -30 24 -21 45 10 28 36 17 36 -15z"/>
<path d="M3350 2191 c-15 -28 3 -61 33 -60 l22 0 -22 9 c-29 12 -30 30 -2 30
14 0 19 5 17 17 -5 26 -35 28 -48 4z m40 -1 c0 -5 -7 -10 -15 -10 -8 0 -15 5
-15 10 0 6 7 10 15 10 8 0 15 -4 15 -10z"/>
<path d="M3504 2196 c-11 -29 1 -61 23 -64 29 -4 48 30 33 58 -12 23 -48 27
-56 6z m46 -26 c0 -20 -5 -30 -15 -30 -18 0 -30 24 -21 45 10 28 36 17 36 -15z"/>
<path d="M3587 2198 c-2 -7 -3 -24 -2 -38 1 -19 8 -26 29 -28 15 -2 25 -9 23
-15 -6 -18 -38 -21 -49 -5 -8 10 -9 10 -5 -2 5 -20 34 -25 52 -10 24 20 18 40
-12 41 -27 0 -27 1 -5 9 32 13 31 60 -2 60 -13 0 -26 -6 -29 -12z m41 -15 c-5
-25 -28 -28 -28 -4 0 12 6 21 16 21 9 0 14 -7 12 -17z"/>
<path d="M3760 2205 c0 -12 31 -78 34 -74 7 6 -18 79 -26 79 -5 0 -8 -2 -8 -5z"/>
<path d="M3810 2199 c0 -5 5 -7 10 -4 6 3 10 8 10 11 0 2 -4 4 -10 4 -5 0 -10
-5 -10 -11z"/>
<path d="M3840 2151 c0 -34 4 -61 9 -61 5 0 7 9 4 19 -4 15 1 20 19 23 19 2
23 9 23 38 0 31 -3 35 -27 38 -28 3 -28 3 -28 -57z m45 18 c0 -15 -7 -25 -17
-27 -13 -3 -18 3 -18 21 0 13 3 27 7 31 13 12 28 -1 28 -25z"/>
<path d="M3924 2196 c-12 -31 0 -61 26 -63 25 -3 25 -3 3 7 -29 12 -30 30 -2
30 14 0 19 5 17 17 -4 23 -36 29 -44 9z m36 -6 c0 -5 -7 -10 -15 -10 -8 0 -15
5 -15 10 0 6 7 10 15 10 8 0 15 -4 15 -10z"/>
<path d="M3994 2196 c-3 -8 -4 -25 -2 -38 2 -17 9 -23 28 -23 22 0 25 4 25 35
0 29 -4 36 -23 38 -13 2 -24 -3 -28 -12z m46 -26 c0 -23 -4 -30 -20 -30 -16 0
-20 7 -20 30 0 23 4 30 20 30 16 0 20 -7 20 -30z"/>
<path d="M4303 2204 c23 -7 22 -20 -3 -27 -25 -7 -28 -47 -2 -46 10 0 12 3 5
6 -18 7 -16 33 2 33 8 0 15 -9 15 -20 0 -11 4 -20 8 -20 5 0 6 17 3 37 -5 28
-12 38 -26 40 -16 1 -16 1 -2 -3z"/>
<path d="M2196 2184 c-4 -9 -4 -19 -1 -22 3 -3 5 -1 5 4 1 5 7 -2 14 -15 13
-23 13 -23 19 -2 3 11 1 19 -4 15 -5 -3 -9 2 -9 10 0 22 -17 29 -24 10z"/>
<path d="M150 2140 c0 -5 5 -10 10 -10 6 0 10 5 10 10 0 6 -4 10 -10 10 -5 0
-10 -4 -10 -10z"/>
<path d="M2830 2140 c0 -5 5 -10 10 -10 6 0 10 5 10 10 0 6 -4 10 -10 10 -5 0
-10 -4 -10 -10z"/>
<path d="M4524 2131 c0 -11 4 -17 8 -15 4 3 8 12 8 20 0 8 -4 14 -8 14 -4 0
-8 -9 -8 -19z"/>
<path d="M3758 2093 c7 -3 16 -2 19 1 4 3 -2 6 -13 5 -11 0 -14 -3 -6 -6z"/>
<path d="M508 1830 c3 -50 7 -60 22 -60 26 0 43 26 36 55 -4 16 -13 25 -26 25
-13 0 -20 7 -20 20 0 11 -3 20 -7 20 -5 0 -6 -27 -5 -60z m46 -5 c8 -21 -3
-45 -20 -45 -9 0 -14 11 -14 30 0 32 23 42 34 15z"/>
<path d="M93 1844 c23 -7 22 -20 -3 -27 -25 -7 -28 -47 -2 -46 10 0 12 3 5 6
-18 7 -16 33 2 33 8 0 15 -9 15 -20 0 -11 4 -20 8 -20 5 0 6 17 3 37 -5 28
-12 38 -26 40 -16 1 -16 1 -2 -3z"/>
<path d="M220 1811 c0 -23 5 -41 10 -41 6 0 10 16 10 36 0 24 4 34 13 31 6 -2
12 -18 12 -35 0 -18 3 -32 8 -32 5 0 7 17 5 38 -3 32 -7 37 -30 40 -27 3 -28
1 -28 -37z"/>
<path d="M303 1815 c2 -36 5 -40 30 -43 26 -3 27 -1 27 37 0 23 -3 41 -8 41
-4 0 -7 -15 -7 -32 0 -46 -28 -44 -37 2 l-6 35 1 -40z"/>
<path d="M380 1811 c0 -23 5 -41 10 -41 6 0 10 16 10 36 0 24 4 34 13 31 6 -2
12 -18 12 -35 0 -18 3 -32 8 -32 5 0 7 17 5 38 -3 32 -7 37 -30 40 -27 3 -28
1 -28 -37z"/>
<path d="M458 1843 c6 -2 12 -20 12 -39 0 -19 3 -34 8 -34 4 0 6 18 4 40 -3
29 -8 40 -21 39 -10 0 -11 -2 -3 -6z"/>
<path d="M592 1838 c-25 -25 -1 -77 30 -65 8 4 7 6 -4 6 -26 1 -22 31 3 31 14
0 19 5 17 17 -4 22 -29 28 -46 11z m33 -8 c3 -5 -1 -10 -9 -10 -9 0 -16 5 -16
10 0 6 4 10 9 10 6 0 13 -4 16 -10z"/>
<path d="M660 1808 c0 -21 3 -38 8 -38 4 0 7 15 7 33 0 20 5 31 13 30 6 -2 12
1 12 6 0 6 -9 9 -20 8 -16 -1 -20 -8 -20 -39z"/>
<path d="M140 1780 c0 -5 5 -10 10 -10 6 0 10 5 10 10 0 6 -4 10 -10 10 -5 0
-10 -4 -10 -10z"/>
<path d="M74 1655 c1 -57 2 -60 26 -60 22 0 25 4 25 35 0 28 -4 36 -22 38 -13
2 -24 12 -26 25 -3 12 -4 -5 -3 -38z m41 -25 c0 -16 -6 -26 -17 -28 -14 -3
-18 3 -18 28 0 25 4 31 18 28 11 -2 17 -12 17 -28z"/>
<path d="M235 1645 c0 -30 3 -55 8 -55 4 0 7 21 7 47 l0 48 26 -40 c41 -61 42
-61 46 -1 2 35 -1 56 -7 56 -7 0 -9 -15 -7 -35 2 -19 2 -35 -1 -35 -3 0 -15
16 -27 35 -31 51 -45 45 -45 -20z"/>
<path d="M462 1645 c22 -30 42 -55 44 -55 2 0 4 25 4 55 0 30 -4 55 -8 55 -4
0 -6 -17 -4 -37 l3 -38 -25 30 c-14 17 -26 33 -26 38 0 4 -7 7 -15 7 -9 0 0
-19 27 -55z"/>
<path d="M363 1663 c23 -6 22 -19 -4 -26 -29 -8 -21 -41 11 -45 24 -3 25 -1
22 38 -3 34 -8 40 -26 39 -16 -1 -17 -2 -3 -6z m17 -48 c0 -8 -4 -15 -9 -15
-13 0 -22 16 -14 24 11 11 23 6 23 -9z"/>
<path d="M150 1600 c0 -5 5 -10 10 -10 6 0 10 5 10 10 0 6 -4 10 -10 10 -5 0
-10 -4 -10 -10z"/>
<path d="M427 1511 c4 -15 -1 -20 -19 -23 -19 -2 -23 -9 -23 -38 0 -31 3 -35
28 -38 27 -3 27 -3 27 57 0 34 -4 61 -9 61 -5 0 -7 -9 -4 -19z m3 -61 c0 -20
-5 -30 -15 -30 -18 0 -30 24 -21 45 10 28 36 17 36 -15z"/>
<path d="M544 1515 c-11 -27 -9 -105 2 -105 6 0 9 13 6 31 -3 20 0 34 9 40 10
6 11 9 2 9 -7 0 -13 6 -13 14 0 8 6 17 13 19 9 4 9 6 -1 6 -7 1 -15 -6 -18
-14z"/>
<path d="M827 1511 c4 -15 -1 -20 -19 -23 -19 -2 -23 -9 -23 -38 0 -31 3 -35
28 -38 27 -3 27 -3 27 57 0 34 -4 61 -9 61 -5 0 -7 -9 -4 -19z m3 -61 c0 -32
-26 -43 -36 -15 -9 21 3 45 21 45 10 0 15 -10 15 -30z"/>
<path d="M74 1476 c-12 -31 0 -61 26 -63 25 -3 25 -3 3 7 -13 5 -23 18 -23 30
0 12 9 24 23 30 l22 9 -23 0 c-12 1 -25 -5 -28 -13z"/>
<path d="M223 1455 c2 -36 5 -40 30 -43 26 -3 27 -1 27 37 0 23 -3 41 -8 41
-4 0 -7 -15 -7 -32 0 -46 -28 -44 -37 2 l-6 35 1 -40z"/>
<path d="M300 1451 c0 -23 5 -41 10 -41 6 0 10 16 10 36 0 24 4 34 13 31 6 -2
12 -18 12 -35 0 -18 3 -32 8 -32 5 0 7 17 5 38 -3 32 -7 37 -30 40 -27 3 -28
1 -28 -37z"/>
<path d="M464 1476 c-12 -31 0 -61 26 -63 25 -3 25 -3 3 7 -29 12 -30 30 -2
30 14 0 19 5 17 17 -4 23 -36 29 -44 9z m36 -6 c0 -5 -7 -10 -15 -10 -8 0 -15
5 -15 10 0 6 7 10 15 10 8 0 15 -4 15 -10z"/>
<path d="M590 1450 c0 -22 3 -40 8 -40 4 0 6 18 4 40 -2 22 -6 40 -8 40 -2 0
-4 -18 -4 -40z"/>
<path d="M630 1451 c0 -23 5 -41 10 -41 6 0 10 16 10 36 0 24 4 34 13 31 6 -2
12 -18 12 -35 0 -18 3 -32 8 -32 5 0 7 17 5 38 -3 32 -7 37 -30 40 -27 3 -28
1 -28 -37z"/>
<path d="M714 1476 c-12 -31 0 -61 26 -63 25 -3 25 -3 3 7 -29 12 -30 30 -2
30 14 0 19 5 17 17 -4 23 -36 29 -44 9z m36 -6 c0 -5 -7 -10 -15 -10 -8 0 -15
5 -15 10 0 6 7 10 15 10 8 0 15 -4 15 -10z"/>
<path d="M140 1420 c0 -5 5 -10 10 -10 6 0 10 5 10 10 0 6 -4 10 -10 10 -5 0
-10 -4 -10 -10z"/>
<path d="M381 933 c0 -35 3 -63 7 -63 4 0 6 16 4 35 -3 27 -1 35 12 35 12 0
16 -9 16 -35 0 -19 5 -35 11 -35 6 0 9 16 7 38 -2 29 -8 38 -25 40 -13 2 -23
12 -26 25 -2 12 -5 -6 -6 -40z"/>
<path d="M70 972 c0 -6 9 -8 20 -5 16 4 20 0 20 -19 0 -14 -9 -33 -20 -43 -28
-26 -25 -35 13 -34 31 2 31 2 3 6 l-28 5 27 28 c33 35 30 64 -8 68 -15 2 -27
-1 -27 -6z"/>
<path d="M243 923 l21 -56 16 37 15 38 14 -39 c12 -33 15 -35 22 -18 11 28 11
37 0 31 -5 -3 -14 9 -21 27 l-11 32 -16 -35 -16 -35 -10 38 c-6 20 -16 37 -23
37 -8 0 -5 -17 9 -57z"/>
<path d="M343 953 c-1 -24 -1 -25 7 -8 11 26 12 35 2 35 -4 0 -8 -12 -9 -27z"/>
<path d="M955 925 c0 -37 4 -55 13 -55 8 0 12 18 12 55 0 37 -4 55 -12 55 -9
0 -13 -18 -13 -55z"/>
<path d="M1010 925 c0 -37 4 -55 13 -55 8 0 12 18 12 55 0 37 -4 55 -12 55 -9
0 -13 -18 -13 -55z"/>
<path d="M1065 925 c0 -34 4 -55 11 -55 7 0 9 11 6 27 -4 23 -2 25 17 20 11
-3 21 -1 21 4 0 5 -9 9 -20 9 -33 0 -26 38 8 43 23 3 22 4 -8 6 l-35 1 0 -55z"/>
<path d="M1155 925 l0 -55 38 0 c29 0 37 4 36 18 0 10 -3 12 -6 5 -2 -7 -16
-13 -29 -13 -18 0 -24 5 -24 21 0 16 5 20 20 16 12 -3 20 0 20 8 0 8 -8 11
-20 8 -15 -4 -20 0 -20 15 0 15 8 22 28 25 23 3 22 4 -8 6 l-35 1 0 -55z"/>
<path d="M1470 929 c0 -41 -3 -50 -15 -45 -8 3 -15 1 -15 -4 0 -14 24 -12 38
2 14 14 16 98 2 98 -5 0 -10 -23 -10 -51z"/>
<path d="M1740 965 c-15 -18 -6 -33 27 -46 13 -5 23 -15 20 -22 -5 -17 -38
-21 -49 -5 -8 10 -9 10 -5 -2 2 -9 15 -15 33 -15 40 0 47 39 10 57 -34 15 -35
42 -1 36 13 -3 22 -1 19 3 -8 14 -40 10 -54 -6z"/>
<path d="M1950 969 c0 -5 5 -7 10 -4 6 3 10 8 10 11 0 2 -4 4 -10 4 -5 0 -10
-5 -10 -11z"/>
<path d="M2116 971 c-4 -5 2 -7 13 -4 25 7 38 -17 18 -32 -10 -7 -17 -18 -17
-25 0 -7 9 -1 21 14 11 15 18 33 15 41 -6 16 -41 20 -50 6z"/>
<path d="M532 918 c2 -26 9 -43 18 -46 12 -4 13 -2 3 9 -16 17 -17 56 -1 61 7
3 5 7 -6 11 -15 6 -17 1 -14 -35z"/>
<path d="M2072 918 c2 -26 9 -43 18 -46 12 -4 13 -2 3 9 -16 17 -17 56 -1 61
7 3 5 7 -6 11 -15 6 -17 1 -14 -35z"/>
<path d="M473 944 c22 -7 22 -12 -5 -33 -25 -21 -17 -41 18 -41 23 0 25 3 22
38 -3 31 -7 37 -28 39 -14 1 -18 0 -7 -3z m17 -49 c0 -8 -4 -15 -10 -15 -5 0
-10 7 -10 15 0 8 5 15 10 15 6 0 10 -7 10 -15z"/>
<path d="M615 910 c0 -22 5 -40 10 -40 6 0 9 17 7 40 -2 22 -7 40 -11 40 -3 0
-6 -18 -6 -40z"/>
<path d="M660 931 c0 -10 7 -21 15 -25 20 -7 19 -24 -2 -29 -14 -4 -12 -5 5
-6 16 -1 22 5 22 19 0 11 -7 23 -15 26 -20 8 -19 21 3 27 13 4 11 5 -5 6 -16
1 -23 -5 -23 -18z"/>
<path d="M783 944 c23 -7 22 -20 -3 -27 -25 -7 -28 -47 -2 -46 10 0 12 3 5 6
-18 7 -16 33 2 33 8 0 15 -9 15 -20 0 -11 4 -20 8 -20 5 0 6 17 3 37 -5 28
-12 38 -26 40 -16 1 -16 1 -2 -3z"/>
<path d="M835 910 c0 -22 3 -40 8 -40 4 0 7 16 7 35 0 26 4 35 16 35 13 0 15
-8 12 -35 -2 -22 0 -35 7 -35 8 0 10 13 6 38 -5 30 -11 38 -31 40 -23 3 -25 0
-25 -38z"/>
<path d="M1290 910 c0 -22 3 -40 8 -40 4 0 6 18 4 40 -2 22 -6 40 -8 40 -2 0
-4 -18 -4 -40z"/>
<path d="M1330 911 c0 -23 5 -41 10 -41 6 0 10 16 10 36 0 24 4 34 13 31 6 -2
12 -18 12 -35 0 -18 3 -32 8 -32 5 0 7 17 5 38 -3 32 -7 37 -30 40 -27 3 -28
1 -28 -37z"/>
<path d="M1533 943 c23 -6 22 -19 -4 -26 -22 -6 -24 -38 -1 -43 7 -1 8 0 2 3
-16 7 -12 33 5 33 8 0 15 -9 15 -20 0 -11 3 -20 8 -20 4 0 6 18 4 40 -3 34 -8
40 -26 39 -16 -1 -17 -2 -3 -6z"/>
<path d="M1580 946 c0 -2 7 -21 16 -41 12 -29 18 -35 25 -24 12 19 11 32 -1
24 -5 -3 -12 6 -16 20 -3 14 -10 25 -15 25 -5 0 -9 -2 -9 -4z"/>
<path d="M1630 935 c0 -8 2 -15 4 -15 2 0 6 7 10 15 3 8 1 15 -4 15 -6 0 -10
-7 -10 -15z"/>
<path d="M1683 943 c23 -6 22 -19 -4 -26 -22 -6 -24 -38 -1 -43 7 -1 8 0 2 3
-16 7 -12 33 5 33 8 0 15 -9 15 -20 0 -11 3 -20 8 -20 4 0 6 18 4 40 -3 34 -8
40 -26 39 -16 -1 -17 -2 -3 -6z"/>
<path d="M1832 938 c-24 -24 -6 -69 28 -67 9 0 6 4 -8 10 -32 12 -27 54 6 53
12 0 22 3 22 8 0 12 -34 10 -48 -4z"/>
<path d="M1895 910 c0 -22 3 -40 8 -40 4 0 7 18 7 40 0 22 -3 40 -7 40 -5 0
-8 -18 -8 -40z"/>
<path d="M1950 910 c0 -22 5 -40 10 -40 6 0 10 18 10 40 0 22 -4 40 -10 40 -5
0 -10 -18 -10 -40z"/>
<path d="M1990 891 c0 -34 4 -61 9 -61 5 0 7 9 4 19 -4 15 1 20 19 23 19 2 23
9 23 38 0 31 -3 35 -27 38 -28 3 -28 3 -28 -57z m45 18 c0 -15 -7 -25 -17 -27
-13 -3 -18 3 -18 21 0 13 3 27 7 31 13 12 28 -1 28 -25z"/>
<path d="M150 880 c0 -5 5 -10 10 -10 6 0 10 5 10 10 0 6 -4 10 -10 10 -5 0
-10 -4 -10 -10z"/>
<path d="M374 615 c-11 -27 -9 -105 2 -105 6 0 9 13 6 31 -3 20 0 34 9 40 10
6 11 9 2 9 -7 0 -13 6 -13 14 0 8 6 17 13 19 9 4 9 6 -1 6 -7 1 -15 -6 -18
-14z"/>
<path d="M981 573 c0 -35 3 -63 7 -63 4 0 6 16 4 35 -3 27 -1 35 12 35 12 0
16 -9 16 -35 0 -19 5 -35 11 -35 6 0 9 16 7 38 -2 29 -8 38 -25 40 -13 2 -23
12 -26 25 -2 12 -5 -6 -6 -40z"/>
<path d="M1767 611 c4 -15 -1 -20 -19 -23 -19 -2 -23 -9 -23 -38 0 -32 3 -35
30 -38 l30 -3 -3 61 c-2 33 -7 60 -12 60 -4 0 -6 -9 -3 -19z m3 -61 c0 -20 -5
-30 -15 -30 -18 0 -30 24 -21 45 10 28 36 17 36 -15z"/>
<path d="M2041 573 c0 -35 2 -63 7 -63 4 0 6 21 4 48 -5 75 -10 82 -11 15z"/>
<path d="M2485 570 c0 -33 3 -60 8 -60 4 0 7 10 8 23 l0 22 16 -22 c21 -31 37
-29 17 2 -14 21 -14 28 -3 43 11 14 9 13 -9 -2 l-22 -19 0 36 c0 21 -3 37 -7
37 -5 0 -8 -27 -8 -60z"/>
<path d="M2682 615 c-1 -11 -12 -25 -24 -30 -42 -19 -31 -79 13 -73 23 3 24 5
18 63 -3 33 -6 51 -7 40z m-2 -65 c0 -20 -5 -30 -15 -30 -10 0 -15 10 -15 30
0 20 5 30 15 30 10 0 15 -10 15 -30z"/>
<path d="M246 604 c-4 -9 -4 -19 -1 -22 3 -3 5 0 5 7 0 7 5 9 10 6 19 -12 11
-38 -10 -32 -11 3 -20 1 -20 -4 0 -5 11 -9 25 -9 18 0 25 -5 25 -20 0 -11 6
-20 14 -20 11 0 10 11 -7 55 -21 57 -30 66 -41 39z"/>
<path d="M690 609 c0 -5 5 -7 10 -4 6 3 10 8 10 11 0 2 -4 4 -10 4 -5 0 -10
-5 -10 -11z"/>
<path d="M1365 610 c3 -5 8 -10 11 -10 2 0 4 5 4 10 0 6 -5 10 -11 10 -5 0 -7
-4 -4 -10z"/>
<path d="M2200 609 c0 -5 5 -7 10 -4 6 3 10 8 10 11 0 2 -4 4 -10 4 -5 0 -10
-5 -10 -11z"/>
<path d="M644 587 c-8 -22 -1 -70 11 -74 6 -2 10 14 9 37 -1 45 -10 62 -20 37z"/>
<path d="M934 587 c-8 -22 -1 -70 11 -74 6 -2 10 14 9 37 -1 45 -10 62 -20 37z"/>
<path d="M1128 595 c-2 -2 -2 -22 0 -44 3 -30 8 -41 21 -40 10 0 11 2 4 6 -16
6 -17 60 -1 65 8 3 6 6 -4 10 -9 4 -18 5 -20 3z"/>
<path d="M1918 595 c-2 -2 -2 -22 0 -44 3 -30 8 -41 21 -40 10 0 11 2 4 6 -16
6 -17 60 -1 65 8 3 6 6 -4 10 -9 4 -18 5 -20 3z"/>
<path d="M93 584 c23 -7 22 -20 -3 -27 -25 -7 -28 -47 -2 -46 10 0 12 3 5 6
-18 7 -16 33 2 33 8 0 15 -9 15 -20 0 -11 4 -20 8 -20 5 0 6 17 3 37 -5 28
-12 38 -26 40 -16 1 -16 1 -2 -3z"/>
<path d="M410 566 c0 -41 11 -56 39 -56 25 0 26 2 23 40 -2 22 -7 40 -11 40
-4 0 -5 -16 -3 -35 3 -27 1 -35 -12 -35 -12 0 -16 9 -16 35 0 19 -4 35 -10 35
-5 0 -10 -11 -10 -24z"/>
<path d="M495 550 c0 -22 3 -40 8 -40 4 0 7 16 7 35 0 26 4 35 16 35 13 0 15
-8 12 -35 -2 -22 0 -35 7 -35 8 0 10 13 6 38 -5 30 -11 38 -31 40 -23 3 -25 0
-25 -38z"/>
<path d="M582 578 c-24 -24 -6 -69 28 -67 9 0 6 4 -8 10 -32 12 -27 54 6 53
12 0 22 3 22 8 0 12 -34 10 -48 -4z"/>
<path d="M690 550 c0 -22 5 -40 10 -40 6 0 10 18 10 40 0 22 -4 40 -10 40 -5
0 -10 -18 -10 -40z"/>
<path d="M734 576 c-11 -29 1 -61 23 -64 29 -4 48 30 33 58 -12 23 -48 27 -56
6z m46 -26 c0 -20 -5 -30 -15 -30 -18 0 -30 24 -21 45 10 28 36 17 36 -15z"/>
<path d="M815 550 c0 -22 3 -40 8 -40 4 0 7 16 7 35 0 26 4 35 16 35 13 0 15
-8 12 -35 -2 -22 0 -35 7 -35 8 0 10 13 6 38 -5 30 -11 38 -31 40 -23 3 -25 0
-25 -38z"/>
<path d="M1073 584 c22 -7 22 -12 -5 -33 -25 -21 -17 -41 18 -41 23 0 25 3 22
38 -3 31 -7 37 -28 39 -14 1 -18 0 -7 -3z m17 -49 c0 -8 -4 -15 -10 -15 -5 0
-10 7 -10 15 0 8 5 15 10 15 6 0 10 -7 10 -15z"/>
<path d="M1215 550 c0 -22 5 -40 10 -40 6 0 9 17 7 40 -2 22 -7 40 -11 40 -3
0 -6 -18 -6 -40z"/>
<path d="M1260 571 c0 -10 7 -21 15 -25 20 -7 19 -24 -2 -29 -14 -4 -12 -5 5
-6 16 -1 22 5 22 19 0 11 -7 23 -15 26 -20 8 -19 21 3 27 13 4 11 5 -5 6 -16
1 -23 -5 -23 -18z"/>
<path d="M1365 550 c0 -22 3 -40 8 -40 4 0 7 18 7 40 0 22 -3 40 -7 40 -5 0
-8 -18 -8 -40z"/>
<path d="M1405 550 c0 -22 3 -40 8 -40 4 0 7 16 7 35 0 26 4 35 16 35 13 0 15
-8 12 -35 -2 -21 0 -35 7 -35 6 0 9 16 7 40 -4 36 -7 40 -31 40 -24 0 -26 -3
-26 -40z"/>
<path d="M1478 583 c6 -2 12 -20 12 -39 0 -19 5 -34 10 -34 6 0 10 8 10 18 0
35 -13 62 -29 61 -10 0 -11 -2 -3 -6z"/>
<path d="M1530 550 c0 -22 4 -40 8 -40 4 0 6 16 4 35 -3 27 -1 35 12 35 12 0
16 -9 16 -35 0 -19 5 -35 10 -35 6 0 10 16 10 36 0 24 4 34 13 31 6 -2 12 -18
12 -35 0 -18 3 -32 8 -32 5 0 7 17 5 38 -3 37 -3 37 -50 40 l-48 2 0 -40z"/>
<path d="M1654 576 c-12 -31 0 -61 26 -63 25 -3 25 -3 3 7 -31 13 -29 30 3 30
20 0 25 4 20 16 -3 9 -6 18 -6 20 0 11 -41 2 -46 -10z m36 -6 c0 -5 -7 -10
-16 -10 -8 0 -12 5 -9 10 3 6 10 10 16 10 5 0 9 -4 9 -10z"/>
<path d="M1805 550 c0 -22 5 -40 10 -40 6 0 9 17 7 40 -2 22 -7 40 -11 40 -3
0 -6 -18 -6 -40z"/>
<path d="M1863 584 c22 -7 22 -12 -5 -33 -25 -21 -17 -41 18 -41 23 0 25 3 22
38 -3 31 -7 37 -28 39 -14 1 -18 0 -7 -3z m17 -49 c0 -8 -4 -15 -10 -15 -5 0
-10 7 -10 15 0 8 5 15 10 15 6 0 10 -7 10 -15z"/>
<path d="M1964 576 c-12 -31 0 -61 26 -63 25 -3 25 -3 3 7 -31 13 -29 30 3 30
20 0 25 4 20 16 -3 9 -6 18 -6 20 0 11 -41 2 -46 -10z m36 -6 c0 -5 -7 -10
-16 -10 -8 0 -12 5 -9 10 3 6 10 10 16 10 5 0 9 -4 9 -10z"/>
<path d="M2085 560 c8 -16 15 -39 16 -52 l0 -23 10 24 c6 16 6 28 -1 35 -5 5
-10 18 -10 28 0 10 -7 18 -15 18 -14 0 -14 -3 0 -30z"/>
<path d="M2200 550 c0 -22 5 -40 10 -40 6 0 10 18 10 40 0 22 -4 40 -10 40 -5
0 -10 -18 -10 -40z"/>
<path d="M2245 550 c0 -22 3 -40 8 -40 4 0 7 16 7 35 0 26 4 35 16 35 13 0 15
-8 12 -35 -2 -22 0 -35 7 -35 8 0 10 13 6 38 -5 30 -11 38 -31 40 -23 3 -25 0
-25 -38z"/>
<path d="M2320 586 c0 -2 7 -21 16 -41 12 -29 18 -35 25 -24 12 19 11 32 -1
24 -5 -3 -12 6 -16 20 -3 14 -10 25 -15 25 -5 0 -9 -2 -9 -4z"/>
<path d="M2370 575 c0 -8 2 -15 4 -15 2 0 6 7 10 15 3 8 1 15 -4 15 -6 0 -10
-7 -10 -15z"/>
<path d="M2404 576 c-11 -29 1 -61 23 -64 29 -4 48 30 33 58 -12 23 -48 27
-56 6z m46 -26 c0 -20 -5 -30 -15 -30 -18 0 -30 24 -21 45 10 28 36 17 36 -15z"/>
<path d="M2564 576 c-12 -31 0 -61 26 -63 25 -3 25 -3 3 7 -31 13 -29 30 3 30
20 0 25 4 20 16 -3 9 -6 18 -6 20 0 11 -41 2 -46 -10z m36 -6 c0 -5 -7 -10
-16 -10 -8 0 -12 5 -9 10 3 6 10 10 16 10 5 0 9 -4 9 -10z"/>
<path d="M216 525 c-3 -8 -1 -15 4 -15 6 0 10 7 10 15 0 8 -2 15 -4 15 -2 0
-6 -7 -10 -15z"/>
<path d="M140 520 c0 -5 5 -10 10 -10 6 0 10 5 10 10 0 6 -4 10 -10 10 -5 0
-10 -4 -10 -10z"/>
<path d="M2078 473 c7 -3 16 -2 19 1 4 3 -2 6 -13 5 -11 0 -14 -3 -6 -6z"/>
<path d="M74 395 c1 -57 2 -60 26 -60 22 0 25 4 25 35 0 28 -4 36 -22 38 -13
2 -24 12 -26 25 -3 12 -4 -5 -3 -38z m41 -25 c0 -16 -6 -26 -17 -28 -14 -3
-18 3 -18 28 0 25 4 31 18 28 11 -2 17 -12 17 -28z"/>
<path d="M611 393 c0 -35 3 -63 7 -63 4 0 6 16 4 35 -3 27 -1 35 12 35 12 0
16 -9 16 -35 0 -19 5 -35 11 -35 6 0 9 16 7 38 -2 29 -8 38 -25 40 -13 2 -23
12 -26 25 -2 12 -5 -6 -6 -40z"/>
<path d="M810 430 c0 -11 -7 -20 -15 -20 -8 0 -19 -9 -25 -20 -15 -28 4 -60
35 -60 24 0 25 3 25 60 0 33 -4 60 -10 60 -5 0 -10 -9 -10 -20z m0 -60 c0 -20
-5 -30 -15 -30 -10 0 -15 10 -15 30 0 20 5 30 15 30 10 0 15 -10 15 -30z"/>
<path d="M1147 431 c4 -15 -1 -20 -19 -23 -19 -2 -23 -9 -23 -38 0 -31 3 -35
28 -38 27 -3 27 -3 27 57 0 34 -4 61 -9 61 -5 0 -7 -9 -4 -19z m3 -61 c0 -20
-5 -30 -15 -30 -18 0 -30 24 -21 45 10 28 36 17 36 -15z"/>
<path d="M1888 389 c4 -59 5 -60 30 -57 24 3 27 8 27 38 0 29 -4 36 -22 38
-15 2 -23 10 -23 23 0 10 -3 19 -7 19 -5 0 -6 -27 -5 -61z m47 -19 c0 -16 -6
-26 -17 -28 -14 -3 -18 3 -18 28 0 25 4 31 18 28 11 -2 17 -12 17 -28z"/>
<path d="M256 424 c-3 -8 -2 -13 3 -10 7 5 21 -15 21 -30 0 -11 -30 -2 -31 9
0 6 -5 1 -10 -12 -5 -13 -7 -26 -4 -29 3 -3 5 0 5 6 0 7 11 12 25 12 18 0 25
-5 25 -20 0 -12 7 -20 16 -20 12 0 14 3 6 13 -5 6 -16 31 -23 55 -13 44 -23
52 -33 26z"/>
<path d="M564 407 c-8 -22 -1 -70 11 -74 6 -2 10 14 9 37 -1 45 -10 62 -20 37z"/>
<path d="M1222 378 c2 -26 9 -43 18 -46 12 -4 13 -2 3 9 -16 17 -17 56 -1 61
7 3 5 7 -6 11 -15 6 -17 1 -14 -35z"/>
<path d="M1654 407 c-8 -22 -1 -70 11 -74 6 -2 10 14 9 37 -1 45 -10 62 -20
37z"/>
<path d="M2159 415 c-3 -2 -3 -22 -1 -44 3 -30 9 -41 21 -41 13 0 13 2 2 9 -9
6 -12 20 -9 40 4 29 -3 47 -13 36z"/>
<path d="M370 370 c0 -22 4 -40 8 -40 4 0 6 16 4 35 -3 27 -1 35 12 35 12 0
16 -9 16 -35 0 -19 5 -35 10 -35 6 0 10 16 10 36 0 24 4 34 13 31 6 -2 12 -18
12 -35 0 -18 3 -32 8 -32 5 0 7 17 5 38 -3 37 -3 37 -50 40 l-48 2 0 -40z"/>
<path d="M494 396 c-12 -31 0 -61 26 -63 25 -3 25 -3 3 7 -31 13 -29 30 3 30
20 0 25 4 20 16 -3 9 -6 18 -6 20 0 11 -41 2 -46 -10z m36 -6 c0 -5 -7 -10
-16 -10 -8 0 -12 5 -9 10 3 6 10 10 16 10 5 0 9 -4 9 -10z"/>
<path d="M690 391 c-15 -29 4 -63 33 -59 18 2 22 10 22 38 0 28 -4 36 -22 38
-14 2 -26 -4 -33 -17z m45 -21 c0 -16 -6 -26 -17 -28 -14 -3 -18 3 -18 28 0
25 4 31 18 28 11 -2 17 -12 17 -28z"/>
<path d="M894 370 c1 -30 5 -35 29 -38 26 -3 27 -1 27 37 0 23 -4 41 -10 41
-5 0 -10 -16 -10 -35 0 -46 -27 -48 -33 -2 -4 32 -4 32 -3 -3z"/>
<path d="M970 391 c0 -10 7 -21 15 -25 20 -7 19 -24 -2 -29 -14 -4 -12 -5 5
-6 16 -1 22 5 22 19 0 11 -7 23 -15 26 -20 8 -19 21 3 27 13 4 11 5 -5 6 -16
1 -23 -5 -23 -18z"/>
<path d="M1034 396 c-12 -31 0 -61 26 -63 25 -3 25 -3 3 7 -29 12 -30 30 -2
30 14 0 19 5 17 17 -4 23 -36 29 -44 9z m36 -6 c0 -5 -7 -10 -15 -10 -8 0 -15
5 -15 10 0 6 7 10 15 10 8 0 15 -4 15 -10z"/>
<path d="M1270 395 c-26 -31 13 -82 44 -56 19 16 21 42 4 59 -16 16 -33 15
-48 -3z m44 -10 c8 -21 -3 -45 -20 -45 -9 0 -14 11 -14 30 0 32 23 42 34 15z"/>
<path d="M1392 398 c-27 -27 -2 -74 35 -65 14 4 13 5 -4 6 -19 1 -23 7 -23 32
0 26 3 31 20 26 11 -3 20 -1 20 4 0 13 -34 11 -48 -3z"/>
<path d="M1460 368 c0 -21 3 -38 8 -38 4 0 7 15 7 33 0 20 5 31 13 30 6 -2 12
1 12 6 0 6 -9 9 -20 8 -16 -1 -20 -8 -20 -39z"/>
<path d="M1514 396 c-12 -31 0 -61 26 -63 25 -3 25 -3 3 7 -29 12 -30 30 -2
30 14 0 19 5 17 17 -4 23 -36 29 -44 9z m36 -6 c0 -5 -7 -10 -15 -10 -8 0 -15
5 -15 10 0 6 7 10 15 10 8 0 15 -4 15 -10z"/>
<path d="M1603 404 c23 -7 22 -20 -3 -27 -25 -7 -28 -47 -2 -46 10 0 12 3 5 6
-18 7 -16 33 2 33 8 0 15 -9 15 -20 0 -11 4 -20 8 -20 5 0 6 17 3 37 -5 28
-12 38 -26 40 -16 1 -16 1 -2 -3z"/>
<path d="M1700 391 c-15 -28 3 -61 33 -60 l22 0 -22 9 c-29 12 -30 30 -2 30
14 0 19 5 17 17 -5 26 -35 28 -48 4z m40 -1 c0 -5 -7 -10 -15 -10 -8 0 -15 5
-15 10 0 6 7 10 15 10 8 0 15 -4 15 -10z"/>
<path d="M1810 391 c-15 -29 4 -63 33 -59 18 2 22 10 22 38 0 28 -4 36 -22 38
-14 2 -26 -4 -33 -17z m45 -21 c0 -16 -6 -26 -17 -28 -14 -3 -18 3 -18 28 0
25 4 31 18 28 11 -2 17 -12 17 -28z"/>
<path d="M1978 367 c3 -31 -1 -49 -13 -60 -14 -14 -14 -17 -2 -17 8 0 18 7 21
16 9 22 7 104 -2 104 -4 0 -6 -20 -4 -43z"/>
<path d="M2014 396 c-12 -31 0 -61 26 -63 25 -3 25 -3 3 7 -31 13 -29 30 3 30
20 0 25 4 20 16 -3 9 -6 18 -6 20 0 11 -41 2 -46 -10z m36 -6 c0 -5 -7 -10
-16 -10 -8 0 -12 5 -9 10 3 6 10 10 16 10 5 0 9 -4 9 -10z"/>
<path d="M2092 398 c-24 -24 -6 -69 28 -67 9 0 6 4 -8 10 -32 12 -27 54 6 53
12 0 22 3 22 8 0 12 -34 10 -48 -4z"/>
<path d="M2200 391 c0 -10 7 -21 15 -25 20 -7 19 -24 -2 -29 -14 -4 -12 -5 5
-6 16 -1 22 5 22 19 0 11 -7 23 -15 26 -20 8 -19 21 3 27 13 4 11 5 -5 6 -16
1 -23 -5 -23 -18z"/>
<path d="M150 340 c0 -5 5 -10 10 -10 6 0 10 5 10 10 0 6 -4 10 -10 10 -5 0
-10 -4 -10 -10z"/>
<path d="M360 210 c0 -59 14 -82 23 -37 l4 22 8 -22 c4 -13 14 -23 23 -23 13
0 12 3 -4 21 -15 17 -16 23 -6 40 15 24 4 25 -14 2 -12 -16 -13 -14 -14 20 0
20 -4 37 -10 37 -6 0 -10 -27 -10 -60z"/>
<path d="M887 251 c4 -15 -1 -20 -19 -23 -19 -2 -23 -9 -23 -38 0 -31 3 -35
28 -38 27 -3 27 -3 27 57 0 34 -4 61 -9 61 -5 0 -7 -9 -4 -19z m3 -61 c0 -32
-26 -43 -36 -15 -9 21 3 45 21 45 10 0 15 -10 15 -30z"/>
<path d="M1217 251 c4 -15 -1 -20 -19 -23 -19 -2 -23 -9 -23 -38 0 -32 3 -35
30 -38 l30 -3 -3 61 c-2 33 -7 60 -12 60 -4 0 -6 -9 -3 -19z m3 -61 c0 -32
-26 -43 -36 -15 -9 21 3 45 21 45 10 0 15 -10 15 -30z"/>
<path d="M1500 250 c0 -11 -7 -20 -15 -20 -8 0 -19 -9 -25 -20 -15 -28 4 -60
35 -60 24 0 25 3 25 60 0 33 -4 60 -10 60 -5 0 -10 -9 -10 -20z m0 -60 c0 -20
-5 -30 -15 -30 -10 0 -15 10 -15 30 0 20 5 30 15 30 10 0 15 -10 15 -30z"/>
<path d="M1680 210 c0 -33 4 -60 10 -60 6 0 10 27 10 60 0 33 -4 60 -10 60 -6
0 -10 -27 -10 -60z"/>
<path d="M2278 209 c4 -59 5 -60 30 -57 24 3 27 8 27 38 0 29 -4 36 -22 38
-15 2 -23 10 -23 23 0 10 -3 19 -7 19 -5 0 -6 -27 -5 -61z m47 -19 c0 -16 -6
-26 -17 -28 -14 -3 -18 3 -18 28 0 25 4 31 18 28 11 -2 17 -12 17 -28z"/>
<path d="M2360 210 c0 -33 4 -60 10 -60 6 0 10 27 10 60 0 33 -4 60 -10 60 -6
0 -10 -27 -10 -60z"/>
<path d="M246 244 c-4 -9 -4 -19 -1 -22 3 -3 5 0 5 7 0 7 5 9 10 6 19 -12 11
-38 -10 -32 -11 3 -20 1 -20 -4 0 -5 11 -9 25 -9 18 0 25 -5 25 -20 0 -11 6
-20 14 -20 11 0 10 11 -7 55 -21 57 -30 66 -41 39z"/>
<path d="M1294 227 c-8 -22 -1 -70 11 -74 6 -2 10 14 9 37 -1 45 -10 62 -20
37z"/>
<path d="M74 216 c-12 -31 0 -61 26 -63 25 -3 25 -3 3 7 -13 5 -23 18 -23 30
0 12 9 24 23 30 l22 9 -23 0 c-12 1 -25 -5 -28 -13z"/>
<path d="M444 216 c-12 -31 0 -61 26 -63 25 -3 25 -3 3 7 -29 12 -30 30 -2 30
14 0 19 5 17 17 -4 23 -36 29 -44 9z m36 -6 c0 -5 -7 -10 -15 -10 -8 0 -15 5
-15 10 0 6 7 10 15 10 8 0 15 -4 15 -10z"/>
<path d="M510 225 c0 -12 31 -78 34 -74 7 6 -18 79 -26 79 -5 0 -8 -2 -8 -5z"/>
<path d="M560 219 c0 -5 5 -7 10 -4 6 3 10 8 10 11 0 2 -4 4 -10 4 -5 0 -10
-5 -10 -11z"/>
<path d="M591 223 c0 -5 6 -24 13 -42 9 -24 15 -31 20 -22 5 7 3 18 -3 24 -6
6 -11 19 -11 29 0 10 -4 18 -10 18 -5 0 -10 -3 -9 -7z"/>
<path d="M710 215 c-26 -31 13 -82 44 -56 19 16 21 42 4 59 -16 16 -33 15 -48
-3z m44 -10 c8 -21 -3 -45 -20 -45 -9 0 -14 11 -14 30 0 32 23 42 34 15z"/>
<path d="M785 190 c0 -22 5 -40 10 -40 6 0 9 17 7 40 -2 22 -7 40 -11 40 -3 0
-6 -18 -6 -40z"/>
<path d="M815 220 c3 -5 8 -10 11 -10 2 0 4 5 4 10 0 6 -5 10 -11 10 -5 0 -7
-4 -4 -10z"/>
<path d="M963 195 c2 -36 5 -40 30 -43 26 -3 27 -1 27 37 0 23 -3 41 -8 41 -4
0 -7 -15 -7 -32 0 -46 -28 -44 -37 2 l-6 35 1 -40z"/>
<path d="M1043 214 c-4 -10 0 -20 10 -26 22 -12 22 -25 0 -31 -14 -4 -13 -5 4
-6 32 -2 40 19 15 40 -27 21 -27 26 -4 32 16 4 16 5 -1 6 -10 0 -20 -6 -24
-15z"/>
<path d="M1104 216 c-12 -31 0 -61 26 -63 25 -3 25 -3 3 7 -29 12 -30 30 -2
30 14 0 19 5 17 17 -4 23 -36 29 -44 9z m36 -6 c0 -5 -7 -10 -15 -10 -8 0 -15
5 -15 10 0 6 7 10 15 10 8 0 15 -4 15 -10z"/>
<path d="M1340 211 c-15 -29 4 -63 33 -59 18 2 22 10 22 38 0 28 -4 36 -22 38
-14 2 -26 -4 -33 -17z m45 -21 c0 -16 -6 -26 -17 -28 -14 -3 -18 3 -18 28 0
25 4 31 18 28 11 -2 17 -12 17 -28z"/>
<path d="M1540 211 c-15 -28 3 -61 33 -60 l22 0 -22 9 c-29 12 -30 30 -2 30
14 0 19 5 17 17 -5 26 -35 28 -48 4z m40 -1 c0 -5 -7 -10 -15 -10 -8 0 -15 5
-15 10 0 6 7 10 15 10 8 0 15 -4 15 -10z"/>
<path d="M1610 210 c-15 -27 4 -60 33 -59 l22 0 -22 9 c-15 6 -23 18 -23 34 0
18 6 26 23 29 l22 4 -22 2 c-13 0 -27 -7 -33 -19z"/>
<path d="M1743 223 c23 -6 22 -19 -4 -26 -22 -6 -24 -38 -1 -43 7 -1 8 0 2 3
-16 7 -12 33 5 33 8 0 15 -9 15 -20 0 -11 3 -20 8 -20 4 0 6 18 4 40 -3 34 -8
40 -26 39 -16 -1 -17 -2 -3 -6z"/>
<path d="M1795 190 c0 -22 5 -40 10 -40 6 0 9 17 7 40 -2 22 -7 40 -11 40 -3
0 -6 -18 -6 -40z"/>
<path d="M1825 220 c3 -5 8 -10 11 -10 2 0 4 5 4 10 0 6 -5 10 -11 10 -5 0 -7
-4 -4 -10z"/>
<path d="M1850 211 c-15 -28 3 -61 33 -60 l22 0 -22 9 c-29 12 -30 30 -2 30
14 0 19 5 17 17 -5 26 -35 28 -48 4z m40 -1 c0 -5 -7 -10 -15 -10 -8 0 -15 5
-15 10 0 6 7 10 15 10 8 0 15 -4 15 -10z"/>
<path d="M1968 191 c9 -22 21 -36 25 -32 5 5 2 20 -7 33 -9 14 -13 28 -9 31 3
4 -1 7 -10 7 -14 0 -14 -4 1 -39z"/>
<path d="M2053 224 c22 -7 22 -12 -5 -33 -25 -21 -17 -41 18 -41 23 0 25 3 22
38 -3 31 -7 37 -28 39 -14 1 -18 0 -7 -3z m17 -49 c0 -8 -4 -15 -10 -15 -5 0
-10 7 -10 15 0 8 5 15 10 15 6 0 10 -7 10 -15z"/>
<path d="M2110 190 c0 -22 5 -40 10 -40 6 0 10 18 10 40 0 22 -4 40 -10 40 -5
0 -10 -18 -10 -40z"/>
<path d="M2165 190 c0 -22 5 -40 10 -40 6 0 9 17 7 40 -2 22 -7 40 -11 40 -3
0 -6 -18 -6 -40z"/>
<path d="M2223 224 c22 -7 22 -12 -5 -33 -25 -21 -17 -41 18 -41 23 0 25 3 22
38 -3 31 -7 37 -28 39 -14 1 -18 0 -7 -3z m17 -49 c0 -8 -4 -15 -10 -15 -5 0
-10 7 -10 15 0 8 5 15 10 15 6 0 10 -7 10 -15z"/>
<path d="M2404 216 c-12 -31 0 -61 26 -63 25 -3 25 -3 3 7 -31 13 -29 30 3 30
20 0 25 4 20 16 -3 9 -6 18 -6 20 0 11 -41 2 -46 -10z m36 -6 c0 -5 -7 -10
-16 -10 -8 0 -12 5 -9 10 3 6 10 10 16 10 5 0 9 -4 9 -10z"/>
<path d="M2477 223 c-13 -13 -7 -32 13 -38 26 -8 26 -22 0 -28 -17 -4 -17 -4
2 -3 30 1 36 32 9 41 -26 8 -27 22 -3 28 14 4 14 5 1 6 -9 0 -19 -2 -22 -6z"/>
<path d="M636 212 c-3 -6 0 -22 8 -37 8 -14 17 -22 20 -17 3 6 0 22 -8 37 -8
14 -17 22 -20 17z"/>
<path d="M216 165 c-3 -8 -1 -15 4 -15 6 0 10 7 10 15 0 8 -2 15 -4 15 -2 0
-6 -7 -10 -15z"/>
<path d="M140 160 c0 -5 5 -10 10 -10 6 0 10 5 10 10 0 6 -4 10 -10 10 -5 0
-10 -4 -10 -10z"/>
<path d="M508 113 c7 -3 16 -2 19 1 4 3 -2 6 -13 5 -11 0 -14 -3 -6 -6z"/>
</g>
</svg>
